<?xml version="1.0" encoding="UTF-8" standalone="no"?>
<!-- Created with Inkscape (http://www.inkscape.org/) -->

<svg
   width="1024"
   height="1023.9999"
   viewBox="0 0 270.93334 270.93333"
   version="1.1"
   id="svg1"
   xml:space="preserve"
   xmlns="http://www.w3.org/2000/svg"
   xmlns:svg="http://www.w3.org/2000/svg"><defs
     id="defs1"><filter
       style="color-interpolation-filters:sRGB"
       id="filter3"
       x="-0.033592332"
       y="-0.050004707"
       width="1.0951783"
       height="1.14168"><feFlood
         result="flood"
         in="SourceGraphic"
         flood-opacity="0.498039"
         flood-color="rgb(0,0,0)"
         id="feFlood2" /><feGaussianBlur
         result="blur"
         in="SourceGraphic"
         stdDeviation="3.000000"
         id="feGaussianBlur2" /><feOffset
         result="offset"
         in="blur"
         dx="6.000000"
         dy="6.000000"
         id="feOffset2" /><feComposite
         result="comp1"
         operator="in"
         in="flood"
         in2="offset"
         id="feComposite2" /><feComposite
         result="comp2"
         operator="over"
         in="SourceGraphic"
         in2="comp1"
         id="feComposite3" /></filter></defs><g
     id="layer1"><circle
       style="fill:#05a249;fill-opacity:1;stroke-width:0.235337"
       id="path2"
       cx="135.46666"
       cy="135.46666"
       r="135.46666" /><path
       style="fill:#ffffff;fill-opacity:1;stroke-width:3.11868;filter:url(#filter3)"
       d="m 123.03996,206.42331 c 1.64404,-1.38335 3.36662,-5.34355 4.17794,-9.60506 0.62271,-3.27075 0.59209,-10.15133 -0.069,-15.49204 -0.10042,-0.81138 -0.0817,-1.14331 0.0415,-0.73763 0.43178,1.42112 9.07903,0.82059 16.70635,-1.16024 0.66758,-0.1734 1.15915,-0.12973 1.15915,0.10292 0,0.22205 0.97187,2.18694 2.15975,4.36611 5.17569,9.49492 5.10019,9.32086 4.8844,11.25859 -0.11133,0.99926 -1.17268,3.81274 -2.35871,6.25217 -1.18604,2.4394 -2.15644,4.72037 -2.15644,5.06879 0,0.54892 1.19567,0.61157 8.95696,0.46926 4.92633,-0.0904 9.28097,-0.31354 9.67701,-0.49608 1.02534,-0.47254 2.65874,-3.42799 3.50674,-6.34495 1.02408,-3.5228 0.66618,-9.04985 -1.0523,-16.24991 -0.94275,-3.94996 -1.30367,-6.35876 -1.18012,-7.87604 0.3449,-4.23503 3.48173,-7.03042 9.42833,-8.40196 4.23536,-0.97686 15.51621,-0.9711 23.77288,0.0125 12.89037,1.53505 23.16098,1.31686 30.67675,-0.65171 3.90362,-1.02246 8.59682,-2.97238 10.13639,-4.21143 l 1.12644,-0.90654 -1.2645,0.32409 c -2.44826,0.62748 -6.36472,0.84414 -10.32685,0.57128 -4.71981,-0.32503 -11.11644,-2.30673 -17.06918,-5.28809 -4.76094,-2.38448 -15.23091,-9.36187 -22.14671,-14.75902 -2.90666,-2.2684 -7.07955,-5.52358 -9.27307,-7.23377 -2.19352,-1.71019 -6.4407,-4.72552 -9.43815,-6.70077 -12.51681,-8.24822 -22.88611,-11.64957 -35.43595,-11.62381 -11.41786,0.0249 -18.44826,2.2593 -29.75001,9.46139 -6.33182,4.03504 -7.62118,4.57619 -10.925137,4.58545 -4.03011,0.0125 -6.48239,-1.71409 -8.3139,-5.84955 -1.87735,-4.239 -2.20824,-7.01007 -2.21956,-18.58685 -0.0125,-11.848769 -0.2872,-14.383919 -2.18609,-20.113827 -3.67642,-11.092921 -11.82719,-19.097698 -22.68673,-22.280433 -3.79416,-1.112001 -14.13748,-1.14297 -18.12467,-0.05425 -9.38894,2.563653 -15.17412,7.898272 -15.17412,13.992331 0,1.323472 0.29628,3.030949 0.65867,3.794335 l 0.65867,1.38803 0.96544,-0.965444 c 1.27454,-1.274543 5.11261,-2.055149 8.42127,-1.712784 3.51697,0.363921 10.86401,0.399006 12.09986,0.05765 0.95063,-0.262594 0.96067,-0.247619 0.16809,0.247314 -0.58085,0.362636 -3.07134,0.538283 -8.00858,0.564788 -7.58618,0.04082 -10.68294,0.618751 -12.18049,2.273516 -0.63915,0.706226 -0.62717,0.838242 0.16778,1.848822 1.53018,1.945301 3.0234,2.133762 10.63831,1.342681 11.96478,-1.242979 16.9653,-0.341276 20.22812,3.647575 2.54939,3.116621 3.40307,6.376262 3.40972,13.019236 0.003,3.12966 -0.32834,8.44061 -0.73658,11.80211 -0.93114,7.66762 -0.96001,17.87062 -0.0645,22.83328 3.09417,17.14908 13.23337,30.51069 28.99121,38.20515 5.39257,2.63316 5.8193,2.92966 6.459877,4.48838 0.3772,0.91791 0.7869,2.90953 0.91043,4.42577 0.36592,4.49165 -0.97708,8.4993 -5.397867,16.10776 -0.89905,1.5473 -1.63463,3.01728 -1.63463,3.26662 0,0.2994 1.79291,0.45337 5.27681,0.45337 h 5.276837 l -0.26447,1.05373 -0.26446,1.05377 h 8.86494 c 8.80078,0 8.87385,-0.006 10.09631,-1.03615 z m 2.9596,-30.26103 c -0.39654,-1.91229 -1.12662,-5.37365 -1.62237,-7.69192 -1.4092,-6.58982 -0.66712,-11.73047 2.37297,-16.43864 0.59876,-0.92731 0.94824,-1.30666 0.77661,-0.84301 -2.93548,7.92974 -3.33738,12.24468 -1.86487,20.02141 1.0218,5.39648 1.46051,8.43036 1.21888,8.42958 -0.0883,-2.8e-4 -0.48465,-1.56514 -0.88122,-3.47742 z M 53.669143,72.140314 c -1.124,-1.047187 -1.18962,-2.561714 -0.15157,-3.501061 1.01124,-0.915146 2.30062,-0.885359 3.16815,0.0733 1.20786,1.33467 0.305,3.351145 -0.65452,3.741512 -1.13211,0.46063 -1.27901,0.695214 -2.36197,-0.313708 z"
       id="path1"
       transform="matrix(1.0764879,0,0,1.0764879,-1.9726499,-13.591026)" /></g></svg>
